<svg width="1440" height="1024" viewBox="0 0 1440 1024" fill="none" xmlns="http://www.w3.org/2000/svg">
<path fill-rule="evenodd" clip-rule="evenodd" d="M-1.62079 -278.251C87.8184 -289.164 136.991 -178.239 199.116 -112.979C258.661 -50.4309 361.06 2.58353 346.808 87.7579C332.496 173.287 208.462 175.763 141.567 230.946C87.2384 275.763 67.6308 362.365 -1.62079 375.187C-77.5362 389.244 -162.734 357.157 -209.883 296.021C-254.047 238.755 -233.322 159.375 -223.289 87.7579C-215.123 29.4741 -189.187 -18.9796 -158.699 -69.32C-111.776 -146.797 -91.532 -267.28 -1.62079 -278.251Z" fill="#AECAF2"/>
<path fill-rule="evenodd" clip-rule="evenodd" d="M-1.62079 -307.251C87.8184 -318.164 136.991 -207.239 199.116 -141.979C258.661 -79.4309 361.06 -26.4165 346.808 58.7579C332.496 144.287 208.462 146.763 141.567 201.946C87.2384 246.763 67.6308 333.365 -1.62079 346.187C-77.5362 360.244 -162.734 328.157 -209.883 267.021C-254.047 209.755 -233.322 130.375 -223.289 58.7579C-215.123 0.474121 -189.187 -47.9796 -158.699 -98.32C-111.776 -175.797 -91.532 -296.28 -1.62079 -307.251Z" fill="#0D60D8"/>
<path fill-rule="evenodd" clip-rule="evenodd" d="M1284.28 688.453C1310.84 644.202 1339.95 596.795 1387.87 577.631C1438.37 557.436 1494.1 573.53 1547.63 583.135C1611.92 594.67 1695.52 584.549 1731.23 639.239C1767.44 694.698 1713.26 766.645 1710.67 832.828C1708.46 889.333 1733.34 944.724 1717.17 998.911C1698.83 1060.36 1673.58 1132.88 1614.03 1156.66C1553.95 1180.66 1493.37 1116.08 1428.71 1114.13C1359.61 1112.04 1291.57 1171.88 1227.88 1145C1163.46 1117.81 1102.95 1048.28 1107.39 978.499C1112.17 903.325 1210.05 872.842 1249.27 808.533C1271.43 772.201 1262.38 724.94 1284.28 688.453Z" fill="#F6DFAE"/>
<path fill-rule="evenodd" clip-rule="evenodd" d="M1306.28 741.453C1332.84 697.202 1361.95 649.795 1409.87 630.631C1460.37 610.436 1516.1 626.53 1569.63 636.135C1633.92 647.67 1717.52 637.549 1753.23 692.239C1789.44 747.698 1735.26 819.645 1732.67 885.828C1730.46 942.333 1755.34 997.724 1739.17 1051.91C1720.83 1113.36 1695.58 1185.88 1636.03 1209.66C1575.95 1233.66 1515.37 1169.08 1450.71 1167.13C1381.61 1165.04 1313.57 1224.88 1249.88 1198C1185.46 1170.81 1124.95 1101.28 1129.39 1031.5C1134.17 956.325 1232.05 925.842 1271.27 861.533C1293.43 825.201 1284.38 777.94 1306.28 741.453Z" fill="#E39E0B"/>
<path fill-rule="evenodd" clip-rule="evenodd" d="M299.23 801.11C300.852 801.878 300.226 804.72 301.608 805.864C302.541 806.636 304.36 805.166 305.193 806.046C305.991 806.888 304.356 808.534 305.029 809.478C306.328 811.299 310.923 811.177 310.404 813.352C309.882 815.54 305.431 812.889 303.837 814.476C302.504 815.802 304.817 818.545 303.68 820.043C302.766 821.246 300.611 821.155 299.23 820.541C297.77 819.893 297.733 817.583 296.348 816.786C295.111 816.075 292.928 817.646 292.134 816.461C291.3 815.216 292.86 813.612 293.253 812.166C293.489 811.298 294.308 810.451 293.997 809.607C293.146 807.3 289.528 805.885 290.051 803.482C290.441 801.694 293.675 803.405 295.447 802.947C296.822 802.592 297.947 800.503 299.23 801.11Z" fill="#F6DFAE"/>
<path fill-rule="evenodd" clip-rule="evenodd" d="M448.23 934.11C449.852 934.878 449.226 937.72 450.608 938.864C451.541 939.636 453.36 938.166 454.193 939.046C454.991 939.888 453.356 941.534 454.029 942.478C455.328 944.299 459.923 944.177 459.404 946.352C458.882 948.54 454.431 945.889 452.837 947.476C451.504 948.802 453.817 951.545 452.68 953.043C451.766 954.246 449.611 954.155 448.23 953.541C446.77 952.893 446.733 950.583 445.348 949.786C444.111 949.075 441.928 950.646 441.134 949.461C440.3 948.216 441.86 946.612 442.253 945.166C442.489 944.298 443.308 943.451 442.997 942.607C442.146 940.3 438.528 938.885 439.051 936.482C439.441 934.694 442.675 936.405 444.447 935.947C445.822 935.592 446.947 933.503 448.23 934.11Z" fill="#F6DFAE"/>
<path fill-rule="evenodd" clip-rule="evenodd" d="M375.23 492.11C376.852 492.878 376.226 495.72 377.608 496.864C378.541 497.636 380.36 496.166 381.193 497.046C381.991 497.888 380.356 499.534 381.029 500.478C382.328 502.299 386.923 502.177 386.404 504.352C385.882 506.54 381.431 503.889 379.837 505.476C378.504 506.802 380.817 509.545 379.68 511.043C378.766 512.246 376.611 512.155 375.23 511.541C373.77 510.893 373.733 508.583 372.348 507.786C371.111 507.075 368.928 508.646 368.134 507.461C367.3 506.216 368.86 504.612 369.253 503.166C369.489 502.298 370.308 501.451 369.997 500.607C369.146 498.3 365.528 496.885 366.051 494.482C366.441 492.694 369.675 494.405 371.447 493.947C372.822 493.592 373.947 491.503 375.23 492.11Z" fill="#F6DFAE"/>
<path fill-rule="evenodd" clip-rule="evenodd" d="M1048.15 116.121C1049.94 116.966 1049.25 120.092 1050.77 121.351C1051.8 122.201 1053.8 120.583 1054.71 121.551C1055.59 122.478 1053.79 124.288 1054.53 125.327C1055.96 127.33 1061.02 127.195 1060.45 129.588C1059.87 131.995 1054.98 129.079 1053.22 130.824C1051.76 132.283 1054.3 135.302 1053.05 136.948C1052.04 138.273 1049.67 138.172 1048.15 137.497C1046.55 136.784 1046.51 134.243 1044.98 133.366C1043.62 132.584 1041.22 134.312 1040.35 133.008C1039.43 131.639 1041.15 129.874 1041.58 128.283C1041.84 127.329 1042.74 126.397 1042.4 125.469C1041.46 122.93 1037.48 121.374 1038.06 118.731C1038.48 116.763 1042.04 118.645 1043.99 118.142C1045.5 117.751 1046.74 115.453 1048.15 116.121Z" fill="#AECAF2"/>
<path fill-rule="evenodd" clip-rule="evenodd" d="M1208.15 162.121C1209.94 162.966 1209.25 166.092 1210.77 167.351C1211.8 168.201 1213.8 166.583 1214.71 167.551C1215.59 168.478 1213.79 170.288 1214.53 171.327C1215.96 173.33 1221.02 173.195 1220.45 175.588C1219.87 177.995 1214.98 175.079 1213.22 176.824C1211.76 178.283 1214.3 181.302 1213.05 182.948C1212.04 184.273 1209.67 184.172 1208.15 183.497C1206.55 182.784 1206.51 180.243 1204.98 179.366C1203.62 178.584 1201.22 180.312 1200.35 179.008C1199.43 177.639 1201.15 175.874 1201.58 174.283C1201.84 173.329 1202.74 172.397 1202.4 171.469C1201.46 168.93 1197.48 167.374 1198.06 164.731C1198.48 162.763 1202.04 164.645 1203.99 164.142C1205.5 163.751 1206.74 161.453 1208.15 162.121Z" fill="#AECAF2"/>
<path fill-rule="evenodd" clip-rule="evenodd" d="M1052.15 402.121C1053.94 402.966 1053.25 406.092 1054.77 407.351C1055.8 408.201 1057.8 406.583 1058.71 407.551C1059.59 408.478 1057.79 410.288 1058.53 411.327C1059.96 413.33 1065.02 413.195 1064.45 415.588C1063.87 417.995 1058.98 415.079 1057.22 416.824C1055.76 418.283 1058.3 421.302 1057.05 422.948C1056.04 424.273 1053.67 424.172 1052.15 423.497C1050.55 422.784 1050.51 420.243 1048.98 419.366C1047.62 418.584 1045.22 420.312 1044.35 419.008C1043.43 417.639 1045.15 415.874 1045.58 414.283C1045.84 413.329 1046.74 412.397 1046.4 411.469C1045.46 408.93 1041.48 407.374 1042.06 404.731C1042.48 402.763 1046.04 404.645 1047.99 404.142C1049.5 403.751 1050.74 401.453 1052.15 402.121Z" fill="#AECAF2"/>
<path fill-rule="evenodd" clip-rule="evenodd" d="M1319.15 356.121C1320.94 356.966 1320.25 360.092 1321.77 361.351C1322.8 362.201 1324.8 360.583 1325.71 361.551C1326.59 362.478 1324.79 364.288 1325.53 365.327C1326.96 367.33 1332.02 367.195 1331.45 369.588C1330.87 371.995 1325.98 369.079 1324.22 370.824C1322.76 372.283 1325.3 375.302 1324.05 376.948C1323.04 378.273 1320.67 378.172 1319.15 377.497C1317.55 376.784 1317.51 374.243 1315.98 373.366C1314.62 372.584 1312.22 374.312 1311.35 373.008C1310.43 371.639 1312.15 369.874 1312.58 368.283C1312.84 367.329 1313.74 366.397 1313.4 365.469C1312.46 362.93 1308.48 361.374 1309.06 358.731C1309.48 356.763 1313.04 358.645 1314.99 358.142C1316.5 357.751 1317.74 355.453 1319.15 356.121Z" fill="#AECAF2"/>
<path fill-rule="evenodd" clip-rule="evenodd" d="M424.539 113.138C426.567 114.098 425.784 117.65 427.512 119.081C428.68 120.047 430.953 118.208 431.995 119.309C432.992 120.362 430.948 122.419 431.79 123.599C433.413 125.876 439.158 125.723 438.509 128.443C437.857 131.178 432.292 127.864 430.299 129.848C428.633 131.505 431.525 134.936 430.103 136.807C428.96 138.312 426.267 138.198 424.539 137.431C422.714 136.62 422.668 133.732 420.936 132.736C419.39 131.847 416.66 133.811 415.668 132.329C414.625 130.773 416.576 128.767 417.067 126.96C417.362 125.875 418.386 124.816 417.997 123.761C416.934 120.876 412.41 119.108 413.064 116.103C413.551 113.867 417.595 116.006 419.81 115.434C421.528 114.99 422.935 112.378 424.539 113.138Z" fill="#F6DFAE"/>
<path fill-rule="evenodd" clip-rule="evenodd" d="M118.768 426.105C120.308 426.834 119.714 429.534 121.027 430.62C121.914 431.354 123.641 429.957 124.433 430.794C125.19 431.594 123.637 433.157 124.277 434.054C125.511 435.783 129.876 435.667 129.383 437.734C128.887 439.812 124.659 437.294 123.145 438.801C121.879 440.061 124.076 442.667 122.995 444.09C122.127 445.233 120.08 445.146 118.768 444.563C117.381 443.947 117.346 441.753 116.03 440.996C114.855 440.321 112.781 441.813 112.027 440.687C111.235 439.504 112.717 437.98 113.09 436.607C113.314 435.783 114.093 434.978 113.797 434.177C112.989 431.984 109.552 430.641 110.049 428.358C110.419 426.659 113.491 428.284 115.175 427.849C116.48 427.512 117.549 425.527 118.768 426.105Z" fill="#F6DFAE"/>
<path fill-rule="evenodd" clip-rule="evenodd" d="M279.768 274.105C281.308 274.834 280.714 277.534 282.027 278.62C282.914 279.354 284.641 277.957 285.433 278.794C286.19 279.594 284.637 281.157 285.277 282.054C286.511 283.783 290.876 283.667 290.383 285.734C289.887 287.812 285.659 285.294 284.145 286.801C282.879 288.061 285.076 290.667 283.995 292.09C283.127 293.233 281.08 293.146 279.768 292.563C278.381 291.947 278.346 289.753 277.03 288.996C275.855 288.321 273.781 289.813 273.027 288.687C272.235 287.504 273.717 285.98 274.09 284.607C274.314 283.783 275.093 282.978 274.797 282.177C273.989 279.984 270.552 278.641 271.049 276.358C271.419 274.659 274.491 276.284 276.175 275.849C277.48 275.512 278.549 273.527 279.768 274.105Z" fill="#F6DFAE"/>
<path fill-rule="evenodd" clip-rule="evenodd" d="M944.306 964.099C945.765 964.79 945.202 967.347 946.446 968.377C947.286 969.072 948.923 967.749 949.673 968.541C950.39 969.299 948.919 970.78 949.525 971.629C950.693 973.268 954.829 973.158 954.362 975.116C953.892 977.084 949.887 974.699 948.452 976.127C947.253 977.32 949.334 979.789 948.311 981.137C947.488 982.22 945.549 982.137 944.306 981.585C942.992 981.002 942.959 978.923 941.713 978.206C940.599 977.566 938.635 978.98 937.92 977.913C937.17 976.793 938.574 975.349 938.927 974.048C939.14 973.267 939.877 972.505 939.597 971.746C938.831 969.669 935.575 968.396 936.046 966.234C936.397 964.624 939.307 966.164 940.902 965.752C942.139 965.432 943.152 963.552 944.306 964.099Z" fill="#AECAF2"/>
<path fill-rule="evenodd" clip-rule="evenodd" d="M1018.31 699.099C1019.77 699.79 1019.2 702.347 1020.45 703.377C1021.29 704.072 1022.92 702.749 1023.67 703.541C1024.39 704.299 1022.92 705.78 1023.52 706.629C1024.69 708.268 1028.83 708.158 1028.36 710.116C1027.89 712.084 1023.89 709.699 1022.45 711.127C1021.25 712.32 1023.33 714.789 1022.31 716.137C1021.49 717.22 1019.55 717.137 1018.31 716.585C1016.99 716.002 1016.96 713.923 1015.71 713.206C1014.6 712.566 1012.63 713.98 1011.92 712.913C1011.17 711.793 1012.57 710.349 1012.93 709.048C1013.14 708.267 1013.88 707.505 1013.6 706.746C1012.83 704.669 1009.58 703.396 1010.05 701.234C1010.4 699.624 1013.31 701.164 1014.9 700.752C1016.14 700.432 1017.15 698.552 1018.31 699.099Z" fill="#AECAF2"/>
<path fill-rule="evenodd" clip-rule="evenodd" d="M1178.31 717.099C1179.77 717.79 1179.2 720.347 1180.45 721.377C1181.29 722.072 1182.92 720.749 1183.67 721.541C1184.39 722.299 1182.92 723.78 1183.52 724.629C1184.69 726.268 1188.83 726.158 1188.36 728.116C1187.89 730.084 1183.89 727.699 1182.45 729.127C1181.25 730.32 1183.33 732.789 1182.31 734.137C1181.49 735.22 1179.55 735.137 1178.31 734.585C1176.99 734.002 1176.96 731.923 1175.71 731.206C1174.6 730.566 1172.63 731.98 1171.92 730.913C1171.17 729.793 1172.57 728.349 1172.93 727.048C1173.14 726.267 1173.88 725.505 1173.6 724.746C1172.83 722.669 1169.58 721.396 1170.05 719.234C1170.4 717.624 1173.31 719.164 1174.9 718.752C1176.14 718.432 1177.15 716.552 1178.31 717.099Z" fill="#AECAF2"/>
<path fill-rule="evenodd" clip-rule="evenodd" d="M1208.31 538.099C1209.77 538.79 1209.2 541.347 1210.45 542.377C1211.29 543.072 1212.92 541.749 1213.67 542.541C1214.39 543.299 1212.92 544.78 1213.52 545.629C1214.69 547.268 1218.83 547.158 1218.36 549.116C1217.89 551.084 1213.89 548.699 1212.45 550.127C1211.25 551.32 1213.33 553.789 1212.31 555.137C1211.49 556.22 1209.55 556.137 1208.31 555.585C1206.99 555.002 1206.96 552.923 1205.71 552.206C1204.6 551.566 1202.63 552.98 1201.92 551.913C1201.17 550.793 1202.57 549.349 1202.93 548.048C1203.14 547.267 1203.88 546.505 1203.6 545.746C1202.83 543.669 1199.58 542.396 1200.05 540.234C1200.4 538.624 1203.31 540.164 1204.9 539.752C1206.14 539.432 1207.15 537.552 1208.31 538.099Z" fill="#AECAF2"/>
<path fill-rule="evenodd" clip-rule="evenodd" d="M66.1537 932.121C67.9377 932.966 67.2492 936.092 68.7697 937.351C69.7967 938.201 71.7974 936.583 72.7139 937.551C73.591 938.478 71.7924 940.288 72.5333 941.327C73.9619 943.33 79.0169 943.195 78.4461 945.588C77.872 947.995 72.9757 945.079 71.2219 946.824C69.756 948.283 72.3002 951.302 71.0493 952.948C70.0435 954.273 67.6735 954.172 66.1537 953.497C64.5473 952.784 64.507 950.243 62.9832 949.366C61.6226 948.584 59.2209 950.312 58.3474 949.008C57.4302 947.639 59.1463 945.874 59.5787 944.283C59.8383 943.329 60.7395 942.397 60.3972 941.469C59.4612 938.93 55.481 937.374 56.0566 934.731C56.485 932.763 60.0429 934.645 61.9924 934.142C63.5043 933.751 64.7424 931.453 66.1537 932.121Z" fill="#F6DFAE"/>
<path fill-rule="evenodd" clip-rule="evenodd" d="M77.1537 619.121C78.9377 619.966 78.2492 623.092 79.7697 624.351C80.7967 625.201 82.7974 623.583 83.7139 624.551C84.591 625.478 82.7924 627.288 83.5333 628.327C84.9619 630.33 90.0169 630.195 89.4461 632.588C88.872 634.995 83.9757 632.079 82.2219 633.824C80.756 635.283 83.3002 638.302 82.0493 639.948C81.0435 641.273 78.6735 641.172 77.1537 640.497C75.5473 639.784 75.507 637.243 73.9832 636.366C72.6226 635.584 70.2209 637.312 69.3474 636.008C68.4302 634.639 70.1463 632.874 70.5787 631.283C70.8383 630.329 71.7395 629.397 71.3972 628.469C70.4612 625.93 66.481 624.374 67.0566 621.731C67.485 619.763 71.0429 621.645 72.9924 621.142C74.5043 620.751 75.7424 618.453 77.1537 619.121Z" fill="#F6DFAE"/>
<path fill-rule="evenodd" clip-rule="evenodd" d="M1393.46 92.1486C1395.65 93.1854 1394.81 97.0227 1396.67 98.5676C1397.93 99.611 1400.39 97.6254 1401.52 98.8138C1402.59 99.9512 1400.38 102.173 1401.29 103.448C1403.05 105.907 1409.25 105.742 1408.55 108.679C1407.85 111.633 1401.84 108.054 1399.68 110.196C1397.88 111.987 1401.01 115.692 1399.47 117.713C1398.24 119.339 1395.33 119.215 1393.46 118.387C1391.49 117.511 1391.44 114.392 1389.57 113.316C1387.9 112.356 1384.95 114.477 1383.88 112.877C1382.76 111.196 1384.86 109.03 1385.39 107.077C1385.71 105.905 1386.82 104.762 1386.4 103.623C1385.25 100.507 1380.36 98.5967 1381.07 95.3516C1381.6 92.9367 1385.96 95.2472 1388.36 94.6287C1390.21 94.1491 1391.73 91.3284 1393.46 92.1486Z" fill="#AECAF2"/>
</svg>
